<mxfile host="Electron" modified="2023-07-18T10:50:21.017Z" agent="Mozilla/5.0 (Windows NT 10.0; Win64; x64) AppleWebKit/537.36 (KHTML, like Gecko) draw.io/21.6.1 Chrome/112.0.5615.204 Electron/24.6.1 Safari/537.36" etag="F4BbZ_EukytJddFHgjox" version="21.6.1" type="device">
  <diagram name="Страница 1" id="ndJm0niS0sQ-vZL_DHMr">
    <mxGraphModel dx="1834" dy="1254" grid="1" gridSize="10" guides="1" tooltips="1" connect="1" arrows="1" fold="1" page="0" pageScale="1" pageWidth="827" pageHeight="1169" math="0" shadow="0">
      <root>
        <mxCell id="0" />
        <mxCell id="1" parent="0" />
        <mxCell id="YIqT6QrNZpX3WrOSpwbo-1" value="&lt;p style=&quot;margin:0px;margin-top:4px;text-align:center;&quot;&gt;&lt;i&gt;&amp;lt;&amp;lt;Interface&amp;gt;&amp;gt;&lt;/i&gt;&lt;br&gt;&lt;b&gt;Prototype&amp;lt;T&amp;gt;&lt;/b&gt;&lt;/p&gt;&lt;p style=&quot;margin:0px;margin-left:4px;&quot;&gt;&lt;br&gt;&lt;/p&gt;&lt;hr size=&quot;1&quot;&gt;&lt;p style=&quot;margin:0px;margin-left:4px;&quot;&gt;+ clone(): T&lt;/p&gt;" style="verticalAlign=top;align=left;overflow=fill;fontSize=12;fontFamily=Helvetica;html=1;whiteSpace=wrap;" parent="1" vertex="1">
          <mxGeometry x="-110" y="-50" width="190" height="90" as="geometry" />
        </mxCell>
        <mxCell id="YIqT6QrNZpX3WrOSpwbo-3" value="&lt;p style=&quot;margin:0px;margin-top:4px;text-align:center;&quot;&gt;&lt;i&gt;&amp;lt;&amp;lt;Interface&amp;gt;&amp;gt;&lt;/i&gt;&lt;br&gt;&lt;b&gt;ICar&lt;/b&gt;&lt;/p&gt;&lt;hr size=&quot;1&quot;&gt;&lt;p style=&quot;margin:0px;margin-left:4px;&quot;&gt;+ brand: string&lt;br&gt;+ speed: number&lt;/p&gt;&lt;p style=&quot;margin:0px;margin-left:4px;&quot;&gt;+ mas: number[]&lt;/p&gt;&lt;p style=&quot;margin:0px;margin-left:4px;&quot;&gt;&lt;br&gt;&lt;/p&gt;" style="verticalAlign=top;align=left;overflow=fill;fontSize=12;fontFamily=Helvetica;html=1;whiteSpace=wrap;" parent="1" vertex="1">
          <mxGeometry x="-110" y="110" width="190" height="100" as="geometry" />
        </mxCell>
        <mxCell id="YIqT6QrNZpX3WrOSpwbo-8" value="" style="endArrow=block;dashed=1;endFill=0;endSize=12;html=1;rounded=0;" parent="1" source="_ehsN29s0Q0NJEXS7-Gr-3" target="YIqT6QrNZpX3WrOSpwbo-3" edge="1">
          <mxGeometry width="160" relative="1" as="geometry">
            <mxPoint x="-15" y="270" as="sourcePoint" />
            <mxPoint x="-130" y="230" as="targetPoint" />
          </mxGeometry>
        </mxCell>
        <mxCell id="_ehsN29s0Q0NJEXS7-Gr-2" value="Extends" style="endArrow=block;endSize=16;endFill=0;html=1;rounded=0;" edge="1" parent="1" source="YIqT6QrNZpX3WrOSpwbo-3" target="YIqT6QrNZpX3WrOSpwbo-1">
          <mxGeometry width="160" relative="1" as="geometry">
            <mxPoint x="-250" y="60" as="sourcePoint" />
            <mxPoint x="-90" y="60" as="targetPoint" />
          </mxGeometry>
        </mxCell>
        <mxCell id="_ehsN29s0Q0NJEXS7-Gr-3" value="Vehicle" style="swimlane;fontStyle=1;align=center;verticalAlign=top;childLayout=stackLayout;horizontal=1;startSize=26;horizontalStack=0;resizeParent=1;resizeParentMax=0;resizeLast=0;collapsible=1;marginBottom=0;whiteSpace=wrap;html=1;" vertex="1" parent="1">
          <mxGeometry x="-95" y="300" width="160" height="114" as="geometry" />
        </mxCell>
        <mxCell id="_ehsN29s0Q0NJEXS7-Gr-4" value="&lt;p style=&quot;border-color: var(--border-color); margin: 0px 0px 0px 4px;&quot;&gt;+ brand: string&lt;br style=&quot;border-color: var(--border-color);&quot;&gt;+ speed: number&lt;/p&gt;&lt;p style=&quot;border-color: var(--border-color); margin: 0px 0px 0px 4px;&quot;&gt;+ mas: number[]&lt;/p&gt;" style="text;strokeColor=none;fillColor=none;align=left;verticalAlign=top;spacingLeft=4;spacingRight=4;overflow=hidden;rotatable=0;points=[[0,0.5],[1,0.5]];portConstraint=eastwest;whiteSpace=wrap;html=1;" vertex="1" parent="_ehsN29s0Q0NJEXS7-Gr-3">
          <mxGeometry y="26" width="160" height="54" as="geometry" />
        </mxCell>
        <mxCell id="_ehsN29s0Q0NJEXS7-Gr-5" value="" style="line;strokeWidth=1;fillColor=none;align=left;verticalAlign=middle;spacingTop=-1;spacingLeft=3;spacingRight=3;rotatable=0;labelPosition=right;points=[];portConstraint=eastwest;strokeColor=inherit;" vertex="1" parent="_ehsN29s0Q0NJEXS7-Gr-3">
          <mxGeometry y="80" width="160" height="8" as="geometry" />
        </mxCell>
        <mxCell id="_ehsN29s0Q0NJEXS7-Gr-6" value="+ clone(): ICar" style="text;strokeColor=none;fillColor=none;align=left;verticalAlign=top;spacingLeft=4;spacingRight=4;overflow=hidden;rotatable=0;points=[[0,0.5],[1,0.5]];portConstraint=eastwest;whiteSpace=wrap;html=1;" vertex="1" parent="_ehsN29s0Q0NJEXS7-Gr-3">
          <mxGeometry y="88" width="160" height="26" as="geometry" />
        </mxCell>
      </root>
    </mxGraphModel>
  </diagram>
</mxfile>
